<svg width="1090" height="750" viewBox="0 0 1090 750" fill="none" xmlns="http://www.w3.org/2000/svg">
<path d="M631.441 403.605C648.375 421.442 659.759 440.881 665.001 463.69C670.944 489.619 668.01 514.769 658.863 539.524C650.795 561.341 639.57 581.215 623.829 598.374C599.113 625.282 568.01 638.195 531.974 640.167C501.048 641.849 471.34 635.725 442.102 626.112C364.795 600.686 301.214 556.634 255.037 488.939C235.054 459.649 219.555 428.433 216.737 392.323C213.685 353.311 228.967 322.743 260.092 299.721C264.93 296.169 269.92 292.636 275.29 290.055C280.793 287.455 280.73 284.706 278.529 279.626C266.48 251.846 262.396 223.494 273.927 194.368C282.385 172.998 297.002 156.446 315.184 142.989C352.394 115.437 395.248 102.297 440.245 94.7892C487.622 86.9032 534.318 90.4281 580.747 102.141C616.179 111.066 650.362 122.871 680.603 143.888C728.973 177.56 750.296 223.311 741.619 282.377C737.463 310.607 728.762 336.874 710.569 359.271C691.833 382.342 667.409 396.155 638.399 402.062C636.457 402.459 634.592 402.914 631.441 403.605Z" fill="#FF6EFD"/>
<path d="M688.172 419.128C709.275 421.297 729.365 426.87 748.508 436.123C778.521 450.626 796.228 474.684 804.618 506.38C809.789 525.9 811.353 545.768 810.899 565.882C810.829 568.554 812.052 572.293 806.8 571.774C778.143 568.856 750.536 562.61 725.663 547.161C701.331 531.988 687.705 509.483 680.488 482.335C675.289 462.805 674.249 442.89 674.312 422.804C674.337 418.468 675.566 416.786 679.971 417.845C682.71 418.476 685.451 418.726 688.172 419.128Z" fill="#FF6EFD"/>
</svg>
