<svg width="1090" height="750" viewBox="0 0 1090 750" fill="none" xmlns="http://www.w3.org/2000/svg">
<g clip-path="url(#clip0_285_77)">
<path d="M538.721 496.933C555.654 514.77 567.038 534.209 572.28 557.018C578.223 582.947 575.289 608.097 566.142 632.851C558.074 654.668 546.85 674.542 531.109 691.702C506.392 718.609 475.29 731.522 439.253 733.495C408.327 735.177 378.619 729.053 349.381 719.44C272.074 694.014 208.493 649.962 162.316 582.266C142.333 552.977 126.835 521.761 124.016 485.65C120.964 446.639 136.246 416.071 167.371 393.049C172.209 389.497 177.2 385.964 182.569 383.383C188.072 380.782 188.009 378.034 185.808 372.954C173.759 345.174 169.675 316.822 181.206 287.696C189.664 266.326 204.281 249.774 222.463 236.316C259.674 208.764 302.528 195.625 347.525 188.117C394.901 180.231 441.597 183.756 488.026 195.468C523.459 204.393 557.641 216.199 587.882 237.215C636.253 270.887 657.575 316.639 648.898 375.705C644.742 403.935 636.041 430.201 617.848 452.598C599.112 475.67 574.688 489.483 545.678 495.39C543.737 495.787 541.871 496.242 538.721 496.933Z" fill="#FF6EFD"/>
<path d="M595.451 512.455C616.554 514.625 636.644 520.198 655.787 529.45C685.8 543.953 703.507 568.012 711.898 599.708C717.069 619.228 718.632 639.096 718.179 659.21C718.109 661.882 719.331 665.621 714.079 665.102C685.422 662.184 657.815 655.938 632.942 640.489C608.611 625.316 594.984 602.811 587.768 575.662C582.568 556.133 581.528 536.217 581.591 516.132C581.616 511.795 582.846 510.113 587.25 511.173C589.99 511.803 592.73 512.053 595.451 512.455Z" fill="#FF6EFD"/>
</g>
<defs>
<clipPath id="clip0_285_77">
<rect width="1090" height="750" fill="white"/>
</clipPath>
</defs>
</svg>
