<svg width="1090" height="1500" viewBox="0 0 1090 1500" fill="none" xmlns="http://www.w3.org/2000/svg">
<g clip-path="url(#clip0_268_60)">
<path d="M10.0916 530.24C28.2663 476.664 145.084 489.615 164.554 488.479C265.349 482.568 365.959 474.777 464.209 449.743C555.603 426.428 639.099 386.372 711.083 324.766C764.781 278.88 807.312 224.348 831.128 156.922C834.684 146.8 836.884 136.002 838.016 125.325C841.196 94.3502 843.477 63.2962 846.208 32.2817C847.403 18.6269 851.333 15.1643 864.863 15.5657C883.427 16.1346 901.991 16.7036 920.492 17.426C935.894 17.9797 939.489 22.5688 936.808 38.1222C930.683 73.2638 924.108 108.366 918.66 143.604C917.529 150.974 918.709 159.838 921.95 166.535C953.499 231.048 967.495 297.924 950.816 369.108C938.147 423.186 910.651 469.346 873.859 510.318C798.163 594.729 702.956 648.065 594.988 677.196C421.442 724.076 253.662 703.813 92.7982 624.419C82.6555 619.333 -8.08307 583.815 10.0916 530.24Z" fill="#FF6EFD"/>
</g>
<g clip-path="url(#clip1_268_60)">
<path d="M9.74004 1280.24C27.9147 1226.66 144.732 1239.61 164.203 1238.48C264.997 1232.57 365.607 1224.78 463.857 1199.74C555.251 1176.43 638.747 1136.37 710.732 1074.77C764.429 1028.88 806.96 974.348 830.777 906.922C834.332 896.8 836.532 886.002 837.664 875.325C840.844 844.35 843.126 813.296 845.856 782.282C847.051 768.627 850.981 765.164 864.512 765.566C883.075 766.135 901.639 766.704 920.14 767.426C935.542 767.98 939.138 772.569 936.456 788.122C930.331 823.264 923.757 858.366 918.308 893.604C917.177 900.974 918.358 909.838 921.599 916.535C953.147 981.048 967.143 1047.92 950.464 1119.11C937.796 1173.19 910.299 1219.35 873.507 1260.32C797.812 1344.73 702.605 1398.06 594.636 1427.2C421.09 1474.08 253.31 1453.81 92.4466 1374.42C82.3039 1369.33 -8.43463 1333.82 9.74004 1280.24Z" fill="#FF6EFD"/>
<mask id="mask0_268_60" style="mask-type:alpha" maskUnits="userSpaceOnUse" x="7" y="765" width="951" height="688">
<path d="M9.73906 1280.24C27.9137 1226.66 144.731 1239.61 164.202 1238.48C264.996 1232.57 365.606 1224.78 463.856 1199.74C555.25 1176.43 638.746 1136.37 710.731 1074.77C764.428 1028.88 806.959 974.348 830.776 906.922C834.331 896.8 836.531 886.002 837.663 875.325C840.843 844.35 843.125 813.296 845.855 782.282C847.05 768.627 850.98 765.164 864.511 765.566C883.074 766.135 901.638 766.704 920.139 767.426C935.541 767.98 939.137 772.569 936.455 788.122C930.33 823.264 923.756 858.366 918.308 893.604C917.176 900.974 918.357 909.838 921.598 916.535C953.146 981.048 967.142 1047.92 950.463 1119.11C937.795 1173.19 910.298 1219.35 873.506 1260.32C797.811 1344.73 702.604 1398.06 594.635 1427.2C421.089 1474.08 253.309 1453.81 92.4456 1374.42C82.303 1369.33 -8.43561 1333.82 9.73906 1280.24Z" fill="#FF6EFD"/>
</mask>
<g mask="url(#mask0_268_60)">
<path d="M538.721 1203.42C555.654 1221.26 567.038 1240.7 572.28 1263.51C578.223 1289.44 575.289 1314.59 566.142 1339.34C558.074 1361.16 546.85 1381.03 531.109 1398.19C506.392 1425.1 475.29 1438.01 439.253 1439.98C408.327 1441.67 378.619 1435.54 349.381 1425.93C272.074 1400.5 208.493 1356.45 162.316 1288.76C142.333 1259.47 126.835 1228.25 124.016 1192.14C120.964 1153.13 136.246 1122.56 167.371 1099.54C172.209 1095.99 177.2 1092.45 182.569 1089.87C188.072 1087.27 188.009 1084.52 185.808 1079.44C173.759 1051.66 169.675 1023.31 181.206 994.185C189.664 972.815 204.281 956.263 222.463 942.806C259.674 915.254 302.528 902.114 347.525 894.606C394.901 886.72 441.597 890.245 488.026 901.957C523.459 910.883 557.641 922.688 587.882 943.704C636.253 977.376 657.575 1023.13 648.898 1082.19C644.742 1110.42 636.041 1136.69 617.848 1159.09C599.112 1182.16 574.688 1195.97 545.678 1201.88C543.737 1202.28 541.871 1202.73 538.721 1203.42Z" fill="#1C39FF"/>
<path d="M595.451 1218.94C616.554 1221.11 636.644 1226.69 655.787 1235.94C685.8 1250.44 703.507 1274.5 711.898 1306.2C717.069 1325.72 718.632 1345.59 718.179 1365.7C718.109 1368.37 719.331 1372.11 714.079 1371.59C685.422 1368.67 657.815 1362.43 632.942 1346.98C608.611 1331.8 594.984 1309.3 587.768 1282.15C582.568 1262.62 581.528 1242.71 581.591 1222.62C581.616 1218.28 582.846 1216.6 587.25 1217.66C589.99 1218.29 592.73 1218.54 595.451 1218.94Z" fill="#1C39FF"/>
</g>
</g>
<defs>
<clipPath id="clip0_268_60">
<rect width="1090" height="750" fill="white"/>
</clipPath>
<clipPath id="clip1_268_60">
<rect width="1090" height="750" fill="white" transform="translate(0 750)"/>
</clipPath>
</defs>
</svg>
