<svg width="1136" height="44" viewBox="0 0 1136 44" fill="none" xmlns="http://www.w3.org/2000/svg">
<rect y="1" width="1136" height="43" fill="white"/>
<path d="M133.817 43.6198L148.803 0.802856H208.746L193.761 43.6198H133.817Z" fill="#FED700"/>
<path d="M59 43.6198L73.9859 0.802856H133.93L118.944 43.6198H59Z" fill="#FED700"/>
<path d="M208.747 43.6198L223.733 0.802856H283.677L268.691 43.6198H208.747Z" fill="#FED700"/>
<path d="M283.676 43.6198L298.662 0.802856H358.605L343.619 43.6198H283.676Z" fill="#FED700"/>
<path d="M358.605 43.6198L373.591 0.802856H433.535L418.549 43.6198H358.605Z" fill="#FED700"/>
<path d="M433.535 43.6198L448.521 0.802856H508.465L493.479 43.6198H433.535Z" fill="#FED700"/>
<path d="M508.465 43.6198L523.451 0.802856H583.394L568.409 43.6198H508.465Z" fill="#FED700"/>
<path d="M583.395 43.6198L598.38 0.802856H658.324L643.338 43.6198H583.395Z" fill="#FED700"/>
<path d="M658.324 43.6198L673.31 0.802856H733.254L718.268 43.6198H658.324Z" fill="#FED700"/>
<path d="M733.253 43.6198L748.239 0.802856H808.183L793.197 43.6198H733.253Z" fill="#FED700"/>
<path d="M808.183 43.6198L823.169 0.802856H883.113L868.127 43.6198H808.183Z" fill="#FED700"/>
<path d="M883.113 43.6198L898.099 0.802856H958.043L943.057 43.6198H883.113Z" fill="#FED700"/>
<path d="M958.042 43.6198L973.028 0.802856H1032.97L1017.99 43.6198H958.042Z" fill="#FED700"/>
<path d="M1032.97 43.6198L1047.96 0.802856H1107.9L1092.92 43.6198H1032.97Z" fill="#FED700"/>
</svg>
