<svg width="392" height="391" viewBox="0 0 392 391" fill="none" xmlns="http://www.w3.org/2000/svg">
<path d="M297.275 202.086C291.884 202.086 286.585 202.542 281.432 203.417V187.291C286.585 188.166 291.884 188.621 297.275 188.621C349.519 188.621 391.859 146.404 391.859 94.3107C391.859 42.2175 349.519 0 297.275 0C245.031 0 202.691 42.2175 202.691 94.3107C202.691 99.5218 203.129 104.642 203.934 109.634H187.926C188.748 104.642 189.168 99.54 189.168 94.3107C189.168 42.2175 146.828 0 94.5842 0C42.3399 0 0 42.2175 0 94.3107C0 146.404 42.3399 188.621 94.5842 188.621C99.7739 188.621 104.854 188.202 109.824 187.401V203.326C104.872 202.524 99.7739 202.105 94.5842 202.105C42.3399 202.105 0 244.322 0 296.415C0 348.509 42.3399 390.726 94.5842 390.726C146.828 390.726 189.168 348.509 189.168 296.415C189.168 291.077 188.712 285.847 187.853 280.746H203.97C203.111 285.847 202.654 291.077 202.654 296.415C202.654 348.509 244.994 390.726 297.239 390.726C349.483 390.726 391.823 348.509 391.823 296.415C391.859 244.304 349.519 202.086 297.275 202.086Z" fill="#FED700"/>
</svg>
